<?xml version="1.0" encoding="iso-8859-1"?>
<!-- Generator: Adobe Illustrator 19.0.0, SVG Export Plug-In . SVG Version: 6.00 Build 0)  -->
<svg version="1.1" id="Capa_1" xmlns="http://www.w3.org/2000/svg" xmlns:xlink="http://www.w3.org/1999/xlink" x="0px" y="0px"
	 viewBox="0 0 512 512" style="enable-background:new 0 0 512 512;" xml:space="preserve">
<circle style="fill:#FF1B1B;" cx="256" cy="256" r="256"/>
<path style="fill:#D60000;" d="M511.871,263.79L320.56,72.478L219,118.385l45.347,45.346L123.893,391.738l119.968,119.968
	C247.885,511.894,251.93,512,256,512C394.778,512,507.752,401.569,511.871,263.79z"/>
<path style="fill:#FFFFFF;" d="M272.338,133.054c20.623-8.675,38.011-32.824,48.221-60.576H191.44
	c10.211,27.753,27.598,51.902,48.221,60.576c-77.82,12.381-138.475,110.855-138.475,190.837
	c0,85.501,69.312,108.149,154.813,108.149s154.813-22.649,154.813-108.149C410.813,243.909,350.158,145.435,272.338,133.054z"/>
<path style="fill:#E6E6E6;" d="M272.338,133.054c20.623-8.675,38.011-32.824,48.221-60.576h-64.988v359.561
	c0.143,0,0.285,0.002,0.429,0.002c85.501,0,154.813-22.649,154.813-108.15C410.813,243.909,350.158,145.435,272.338,133.054z"/>
<circle style="fill:#FFDE1F;" cx="256" cy="295.75" r="86.12"/>
<path style="fill:#F9C41E;" d="M256,209.625c-0.144,0-0.285,0.01-0.429,0.011v172.229c0.144,0,0.285,0.011,0.429,0.011
	c47.566,0,86.125-38.56,86.125-86.125S303.566,209.625,256,209.625z"/>
<circle style="fill:#FA8B00;" cx="256" cy="295.75" r="66.62"/>
<path style="fill:#F47C00;" d="M256,229.125c-0.144,0-0.285,0.01-0.429,0.011v133.228c0.143,0.001,0.285,0.011,0.428,0.011
	c36.796,0,66.625-29.829,66.625-66.625C322.625,258.954,292.796,229.125,256,229.125z"/>
<path style="fill:#FFFFFF;" d="M290,316.436c0-14.463-11.331-26.453-26-28.39v-27.152h21v-16h-21V235h-16v9.922
	c-16.095,0.588-29,13.207-29,28.642v1.53c0,15.435,12.905,28.054,29,28.643v25.37h-21v16h21V355h16v-10.174
	C278.669,342.888,290,330.899,290,316.436z M235,275.094v-1.53c0-6.632,5.733-12.081,13-12.617v26.765
	C240.733,287.176,235,281.727,235,275.094z M264,328.544v-24.217c5.785,1.596,10,6.42,10,12.109S269.785,326.948,264,328.544z"/>
<path style="fill:#E6E6E6;" d="M264,288.046v-27.152h21v-16h-21V235h-8.429v120H264v-10.174c14.669-1.938,26-13.927,26-28.39
	S278.669,289.983,264,288.046z M264,328.544v-24.217c5.785,1.596,10,6.42,10,12.109S269.785,326.948,264,328.544z"/>
<g>
</g>
<g>
</g>
<g>
</g>
<g>
</g>
<g>
</g>
<g>
</g>
<g>
</g>
<g>
</g>
<g>
</g>
<g>
</g>
<g>
</g>
<g>
</g>
<g>
</g>
<g>
</g>
<g>
</g>
</svg>
